<?xml version="1.0" encoding="UTF-8" standalone="no"?><!DOCTYPE svg PUBLIC "-//W3C//DTD SVG 1.1//EN" "http://www.w3.org/Graphics/SVG/1.1/DTD/svg11.dtd"><svg width="100%" height="100%" viewBox="0 0 1292 1917" version="1.1" xmlns="http://www.w3.org/2000/svg" xmlns:xlink="http://www.w3.org/1999/xlink" xml:space="preserve" xmlns:serif="http://www.serif.com/" style="fill-rule:evenodd;clip-rule:evenodd;stroke-linecap:round;stroke-linejoin:round;stroke-miterlimit:1.5;"><path d="M566.524,1660.81c52.873,54.651 105.746,54.651 158.618,-0" style="fill:none;stroke:#fff;stroke-width:70.83px;"/><path d="M642.593,1134.33c-275.577,-1.229 -590.289,-119.438 -590.289,-376.458c0,-240.696 277.819,-599.393 593.529,-600.312c315.711,0.919 593.529,359.616 593.529,600.312c0,258.026 -317.18,376.153 -593.529,376.467l-3.24,-0.009Z" style="fill:none;stroke:#fff;stroke-width:70.83px;"/><path d="M645.833,1612.35c-158.38,-3.153 -284.936,-117.808 -294.361,-248.489c-2.631,-36.48 3.693,-73.311 18.834,-107.585c5.344,-12.097 11.672,-23.923 18.997,-35.259c7.678,-11.884 21.802,-29.125 8.169,-21.972c-227.073,119.14 -93.123,355.929 -93.123,355.929c-0,0 82.34,-28.169 110.422,-45.756" style="fill:none;stroke:#fff;stroke-width:70.83px;"/><path d="M652.628,1612.35c158.38,-3.153 284.937,-117.808 294.362,-248.489c2.631,-36.48 -3.693,-73.311 -18.834,-107.585c-5.344,-12.097 -11.672,-23.923 -18.997,-35.259c-7.679,-11.884 -21.802,-29.125 -8.169,-21.972c227.073,119.14 93.123,355.929 93.123,355.929c-0,0 -82.34,-28.169 -110.422,-45.756" style="fill:none;stroke:#fff;stroke-width:70.83px;"/><ellipse cx="424.926" cy="610.877" rx="209.553" ry="212.853" style="fill:none;stroke:#fff;stroke-width:70.83px;"/><ellipse cx="880.331" cy="610.877" rx="209.553" ry="212.853" style="fill:none;stroke:#fff;stroke-width:70.83px;"/><ellipse cx="490.122" cy="616.782" rx="71.514" ry="70.623" style="fill:#fff;"/><ellipse cx="815.135" cy="616.782" rx="71.514" ry="70.623" style="fill:#fff;"/><path d="M651.395,971.446c-104.444,2.979 -113.743,56.291 -223.085,57.645c-35.774,0.442 -73.42,-27.494 -71.534,-57.678c2.777,-44.429 148.547,-101.182 295.852,-101.622l1.727,0.008c146.713,0.875 291.359,57.358 294.125,101.614c1.887,30.184 -35.759,58.12 -71.533,57.678c-109.77,-1.36 -118.712,-55.084 -224.319,-57.678l-1.233,0.033Z" style="fill:#fbd4b6;stroke:#fff;stroke-width:70.83px;"/><path d="M504.668,1016.09c44.228,-19.042 82.794,-42.385 147.96,-45.514c71.458,3.17 100.294,28.17 147.96,45.514c-30.426,16.516 -40.987,33.445 -147.96,35.761c-102.555,-3.544 -113.225,-15.344 -147.96,-35.761Z" style="fill:#fbd4b6;stroke:#fff;stroke-width:70.83px;"/><path d="M537.573,1612.35l-27.557,110.229l-145.659,62.988l87.179,7.873l15.747,66.925l62.417,-55.115l66.924,0l-86.608,-82.671" style="fill:none;stroke:#fff;stroke-width:70.83px;"/><path d="M754.094,1612.35l27.557,110.229l145.659,62.988l-87.18,7.873l-15.746,66.925l-62.417,-55.115l-66.924,0l86.608,-82.671" style="fill:none;stroke:#fff;stroke-width:70.83px;"/><path d="M652.628,158.801c-39.437,-51.649 -77.575,-105.604 -147.96,-102.355" style="fill:none;stroke:#fff;stroke-width:70.83px;"/><path d="M645.833,158.801c39.438,-51.649 77.576,-105.604 147.96,-102.355" style="fill:none;stroke:#fff;stroke-width:70.83px;"/></svg>