<?xml version="1.0" encoding="UTF-8" standalone="no"?><!DOCTYPE svg PUBLIC "-//W3C//DTD SVG 1.1//EN" "http://www.w3.org/Graphics/SVG/1.1/DTD/svg11.dtd"><svg width="100%" height="100%" viewBox="0 0 417 417" version="1.1" xmlns="http://www.w3.org/2000/svg" xmlns:xlink="http://www.w3.org/1999/xlink" xml:space="preserve" xmlns:serif="http://www.serif.com/" style="fill-rule:evenodd;clip-rule:evenodd;stroke-linejoin:round;stroke-miterlimit:2;"><path id="user-circle" d="M354.122,311.339c-6.042,-43.482 -23.72,-82.083 -63.244,-87.425c-20.461,22.321 -49.985,36.503 -82.545,36.503c-32.559,0 -62.083,-14.182 -82.544,-36.503c-39.524,5.342 -57.203,43.943 -63.244,87.425c32.321,45.581 85.565,75.566 145.788,75.566c60.224,0 113.468,-30 145.789,-75.566Zm-56.503,-162.529c0,-49.301 -40,-89.286 -89.286,-89.286c-49.285,0 -89.285,40 -89.285,89.286c0,49.285 40,89.285 89.285,89.285c49.286,0 89.286,-40 89.286,-89.285Zm119.048,59.523c0,114.628 -93.006,208.334 -208.334,208.334c-115.089,0 -208.333,-93.468 -208.333,-208.334c0,-115.089 93.244,-208.333 208.333,-208.333c115.09,0 208.334,93.244 208.334,208.333Z" style="fill:#bdbfc1;fill-rule:nonzero;"/></svg>